<?xml version="1.0" standalone="no"?>
<!DOCTYPE svg PUBLIC "-//W3C//DTD SVG 20010904//EN"
 "http://www.w3.org/TR/2001/REC-SVG-20010904/DTD/svg10.dtd">
<svg version="1.0" xmlns="http://www.w3.org/2000/svg"
 width="60.000000pt" height="56.000000pt" viewBox="0 0 60.000000 56.000000"
 preserveAspectRatio="xMidYMid meet">
<metadata>
Created by potrace 1.13, written by Peter Selinger 2001-2015
</metadata>
<g transform="translate(0.000000,56.000000) scale(0.100000,-0.100000)"
fill="#000000" stroke="none">
<path d="M235 541 c-22 -10 -48 -27 -57 -37 -25 -29 -48 -89 -48 -127 0 -29
-5 -37 -30 -47 -63 -26 -109 -114 -96 -183 10 -52 46 -99 96 -124 57 -29 95
-29 153 1 l47 23 47 -23 c56 -29 94 -30 149 -5 128 58 136 235 14 306 -28 16
-34 25 -32 45 10 63 -37 141 -102 171 -52 23 -90 23 -141 0z"/>
</g>
</svg>
