<?xml version="1.0" standalone="no"?>
<!DOCTYPE svg PUBLIC "-//W3C//DTD SVG 20010904//EN"
 "http://www.w3.org/TR/2001/REC-SVG-20010904/DTD/svg10.dtd">
<svg version="1.0" xmlns="http://www.w3.org/2000/svg"
 width="75.000000pt" height="57.000000pt" viewBox="0 0 75.000000 57.000000"
 preserveAspectRatio="xMidYMid meet">
<metadata>
Created by potrace 1.13, written by Peter Selinger 2001-2015
</metadata>
<g transform="translate(0.000000,57.000000) scale(0.100000,-0.100000)"
fill="#000000" stroke="none">
<path d="M10 520 l0 -50 50 0 50 0 0 50 0 50 -50 0 -50 0 0 -50z"/>
<path d="M170 520 l0 -50 285 0 285 0 0 50 0 50 -285 0 -285 0 0 -50z"/>
<path d="M10 360 l0 -50 50 0 50 0 0 50 0 50 -50 0 -50 0 0 -50z"/>
<path d="M170 360 l0 -50 285 0 285 0 0 50 0 50 -285 0 -285 0 0 -50z"/>
<path d="M17 254 c-4 -4 -7 -27 -7 -51 l0 -43 51 0 50 0 -3 48 -3 47 -40 3
c-23 2 -44 0 -48 -4z"/>
<path d="M172 210 l3 -51 280 0 280 0 3 51 3 50 -286 0 -286 0 3 -50z"/>
<path d="M10 50 l0 -50 50 0 50 0 0 50 0 50 -50 0 -50 0 0 -50z"/>
<path d="M170 50 l0 -50 285 0 285 0 0 50 0 50 -285 0 -285 0 0 -50z"/>
</g>
</svg>
