<?xml version="1.0" standalone="no"?>
<!DOCTYPE svg PUBLIC "-//W3C//DTD SVG 20010904//EN"
 "http://www.w3.org/TR/2001/REC-SVG-20010904/DTD/svg10.dtd">
<svg version="1.0" xmlns="http://www.w3.org/2000/svg"
 width="56.000000pt" height="56.000000pt" viewBox="0 0 56.000000 56.000000"
 preserveAspectRatio="xMidYMid meet">
<metadata>
Created by potrace 1.13, written by Peter Selinger 2001-2015
</metadata>
<g transform="translate(0.000000,56.000000) scale(0.100000,-0.100000)"
fill="#000000" stroke="none">
<path d="M0 280 l0 -280 280 0 280 0 0 280 0 280 -280 0 -280 0 0 -280z m180
180 l0 -80 -80 0 -80 0 0 80 0 80 80 0 80 0 0 -80z m180 0 l0 -80 -80 0 -80 0
0 80 0 80 80 0 80 0 0 -80z m180 0 l0 -80 -80 0 -80 0 0 80 0 80 80 0 80 0 0
-80z m-360 -180 l0 -80 -80 0 -80 0 0 80 0 80 80 0 80 0 0 -80z m180 0 l0 -80
-80 0 -80 0 0 80 0 80 80 0 80 0 0 -80z m180 0 l0 -80 -80 0 -80 0 0 80 0 80
80 0 80 0 0 -80z m-360 -180 l0 -80 -80 0 -80 0 0 80 0 80 80 0 80 0 0 -80z
m180 0 l0 -80 -80 0 -80 0 0 80 0 80 80 0 80 0 0 -80z m180 0 l0 -80 -80 0
-80 0 0 80 0 80 80 0 80 0 0 -80z"/>
</g>
</svg>
