<?xml version="1.0" standalone="no"?>
<!DOCTYPE svg PUBLIC "-//W3C//DTD SVG 20010904//EN"
 "http://www.w3.org/TR/2001/REC-SVG-20010904/DTD/svg10.dtd">
<svg version="1.0" xmlns="http://www.w3.org/2000/svg"
 width="63.000000pt" height="18.000000pt" viewBox="0 0 63.000000 18.000000"
 preserveAspectRatio="xMidYMid meet">
<metadata>
Created by potrace 1.13, written by Peter Selinger 2001-2015
</metadata>
<g transform="translate(0.000000,18.000000) scale(0.100000,-0.100000)"
fill="#000000" stroke="none">
<path d="M0 90 c0 -73 3 -90 15 -90 11 0 15 11 15 40 l0 40 40 0 c22 0 40 5
40 10 0 6 -18 10 -40 10 -38 0 -40 2 -40 30 0 29 2 30 45 30 25 0 45 5 45 10
0 6 -27 10 -60 10 l-60 0 0 -90z"/>
<path d="M173 156 c-39 -34 -39 -98 0 -132 35 -30 59 -30 94 0 39 34 39 98 0
132 -35 30 -59 30 -94 0z m75 -12 c33 -23 31 -88 -3 -110 -23 -15 -27 -15 -50
0 -34 22 -36 87 -3 110 28 20 28 20 56 0z"/>
<path d="M330 90 c0 -72 3 -90 15 -90 10 0 15 16 17 62 l3 63 35 -60 c20 -33
44 -61 53 -63 15 -3 17 7 17 87 0 74 -3 91 -15 91 -12 0 -15 -14 -15 -67 l0
-68 -41 68 c-56 94 -69 90 -69 -23z"/>
<path d="M490 170 c0 -5 11 -10 25 -10 25 0 25 -1 25 -80 0 -64 3 -80 15 -80
12 0 15 16 15 80 0 79 0 80 25 80 14 0 25 5 25 10 0 6 -28 10 -65 10 -37 0
-65 -4 -65 -10z"/>
</g>
</svg>
